<svg xmlns="http://www.w3.org/2000/svg" xmlns:xlink="http://www.w3.org/1999/xlink" viewBox="0 0 6200 1200" role="img" aria-labelledby="title desc">
  <title id="title">Audio Transformer Block Diagram for Acoustic Scene Understanding</title>
  <desc id="desc">Animated left-to-right block diagram: raw waveform, patch extraction, learned filterbank front-end, positional encoding, six-layer transformer encoder, average pooling, and 200-class softmax classifier.</desc>

  <defs>
    <linearGradient id="bg" x1="0" y1="0" x2="0" y2="1">
      <stop offset="0%" stop-color="#07101d"/>
      <stop offset="100%" stop-color="#0d1628"/>
    </linearGradient>

    <pattern id="grid" width="64" height="64" patternUnits="userSpaceOnUse">
      <path d="M64 0H0V64" fill="none" stroke="#1b2a3f" stroke-width="1"/>
    </pattern>

    <linearGradient id="panelGrad" x1="0" y1="0" x2="1" y2="1">
      <stop offset="0%" stop-color="#122036"/>
      <stop offset="100%" stop-color="#162844"/>
    </linearGradient>

    <radialGradient id="focusGrad" cx="50%" cy="45%" r="80%">
      <stop offset="0%" stop-color="#49d8ff" stop-opacity="0.42"/>
      <stop offset="100%" stop-color="#49d8ff" stop-opacity="0"/>
    </radialGradient>

    <linearGradient id="waveGrad" x1="0" y1="0" x2="1" y2="0">
      <stop offset="0%" stop-color="#50cfff"/>
      <stop offset="50%" stop-color="#c4f5ff"/>
      <stop offset="100%" stop-color="#50cfff"/>
    </linearGradient>

    <linearGradient id="patchGrad" x1="0" y1="0" x2="0" y2="1">
      <stop offset="0%" stop-color="#7ae3ff"/>
      <stop offset="100%" stop-color="#2fa4d5"/>
    </linearGradient>

    <pattern id="patchPattern" width="16" height="210" patternUnits="userSpaceOnUse">
      <rect x="0" y="0" width="13" height="210" rx="2" fill="url(#patchGrad)" opacity="0.95"/>
    </pattern>

    <pattern id="embedPattern" width="12" height="36" patternUnits="userSpaceOnUse">
      <rect x="0" y="0" width="8" height="36" rx="2" fill="#5fd4ff" opacity="0.8"/>
    </pattern>

    <linearGradient id="arrowGrad" x1="0" y1="0" x2="1" y2="0">
      <stop offset="0%" stop-color="#62d9ff"/>
      <stop offset="100%" stop-color="#d7f8ff"/>
    </linearGradient>

    <linearGradient id="probGrad" x1="0" y1="1" x2="0" y2="0">
      <stop offset="0%" stop-color="#2898c9"/>
      <stop offset="100%" stop-color="#90ecff"/>
    </linearGradient>

    <marker id="arrow" markerWidth="11" markerHeight="11" refX="9" refY="5.5" orient="auto">
      <path d="M0 0L11 5.5L0 11Z" fill="#8ce5ff"/>
    </marker>

    <marker id="arrowS" markerWidth="8" markerHeight="8" refX="6" refY="4" orient="auto">
      <path d="M0 0L8 4L0 8Z" fill="#9be9ff"/>
    </marker>

    <filter id="glow" x="-35%" y="-35%" width="170%" height="170%">
      <feGaussianBlur stdDeviation="4" result="blur"/>
      <feMerge>
        <feMergeNode in="blur"/>
        <feMergeNode in="SourceGraphic"/>
      </feMerge>
    </filter>

    <clipPath id="patchClip">
      <rect x="910" y="280" width="0" height="210" rx="14">
        <animate attributeName="width" dur="16s" repeatCount="indefinite" keyTimes="0;0.125;0.25;1" values="0;0;660;660"/>
      </rect>
    </clipPath>

    <g id="encoderLayer">
      <rect class="encOuter" x="0" y="0" width="1620" height="120" rx="14"/>

      <rect class="attn" x="16" y="14" width="560" height="92" rx="10"/>
      <text class="tiny" x="30" y="36">Multi-Head Self Attention (8 heads)</text>

      <rect class="qkv" x="36" y="57" width="48" height="22" rx="5"/>
      <rect class="qkv" x="90" y="57" width="48" height="22" rx="5"/>
      <rect class="qkv" x="144" y="57" width="48" height="22" rx="5"/>
      <text class="tiny" x="54" y="72">Q</text>
      <text class="tiny" x="108" y="72">K</text>
      <text class="tiny" x="162" y="72">V</text>

      <line class="subArrow" x1="84" y1="68" x2="210" y2="68"/>
      <line class="subArrow" x1="138" y1="68" x2="210" y2="68"/>
      <line class="subArrow" x1="192" y1="68" x2="210" y2="68"/>

      <circle class="dot" cx="226" cy="38" r="3.2"/>
      <circle class="dot" cx="248" cy="38" r="3.2"/>
      <circle class="dot" cx="270" cy="38" r="3.2"/>
      <circle class="dot" cx="292" cy="38" r="3.2"/>
      <circle class="dot" cx="314" cy="38" r="3.2"/>
      <circle class="dot" cx="336" cy="38" r="3.2"/>
      <circle class="dot" cx="358" cy="38" r="3.2"/>
      <circle class="dot" cx="380" cy="38" r="3.2"/>

      <circle class="dot" cx="226" cy="86" r="3.2"/>
      <circle class="dot" cx="248" cy="86" r="3.2"/>
      <circle class="dot" cx="270" cy="86" r="3.2"/>
      <circle class="dot" cx="292" cy="86" r="3.2"/>
      <circle class="dot" cx="314" cy="86" r="3.2"/>
      <circle class="dot" cx="336" cy="86" r="3.2"/>
      <circle class="dot" cx="358" cy="86" r="3.2"/>
      <circle class="dot" cx="380" cy="86" r="3.2"/>

      <path class="attnFlow" d="M226 86Q265 34 314 86">
        <animate attributeName="stroke-dashoffset" values="0;-54" dur="1.7s" repeatCount="indefinite"/>
      </path>
      <path class="attnFlow" d="M248 86Q288 30 336 86">
        <animate attributeName="stroke-dashoffset" values="0;-54" dur="1.5s" repeatCount="indefinite"/>
      </path>
      <path class="attnFlow" d="M380 86Q325 30 270 86">
        <animate attributeName="stroke-dashoffset" values="0;-54" dur="1.9s" repeatCount="indefinite"/>
      </path>

      <rect class="qkv" x="420" y="52" width="66" height="30" rx="6"/>
      <text class="tiny" x="434" y="71">Concat</text>
      <line class="subArrow" x1="386" y1="68" x2="420" y2="68"/>

      <path class="residual" d="M16 8H854V14" marker-end="url(#arrowS)">
        <animate attributeName="opacity" values="0.25;0.9;0.25" dur="2.1s" repeatCount="indefinite"/>
      </path>

      <line class="subArrow" x1="576" y1="68" x2="598" y2="68"/>

      <rect class="norm" x="598" y="14" width="260" height="92" rx="10"/>
      <text class="tiny" x="620" y="38">Add &amp; LayerNorm</text>
      <rect x="620" y="56" width="216" height="10" rx="5" fill="#63dbff" opacity="0.3">
        <animate attributeName="opacity" values="0.2;0.75;0.2" dur="1.9s" repeatCount="indefinite"/>
      </rect>

      <line class="subArrow" x1="858" y1="68" x2="874" y2="68"/>

      <rect class="ffn" x="874" y="14" width="730" height="92" rx="10"/>
      <text class="tiny" x="894" y="36">Feed Forward (d_ff=128)</text>

      <circle class="dot" cx="934" cy="56" r="3"/>
      <circle class="dot" cx="934" cy="70" r="3"/>
      <circle class="dot" cx="934" cy="84" r="3"/>

      <circle class="dot" cx="1018" cy="50" r="3"/>
      <circle class="dot" cx="1018" cy="62" r="3"/>
      <circle class="dot" cx="1018" cy="74" r="3"/>
      <circle class="dot" cx="1018" cy="86" r="3"/>

      <circle class="dot" cx="1102" cy="56" r="3"/>
      <circle class="dot" cx="1102" cy="70" r="3"/>
      <circle class="dot" cx="1102" cy="84" r="3"/>

      <line class="edge" x1="934" y1="56" x2="1018" y2="50"/>
      <line class="edge" x1="934" y1="70" x2="1018" y2="62"/>
      <line class="edge" x1="934" y1="84" x2="1018" y2="86"/>
      <line class="edge" x1="1018" y1="50" x2="1102" y2="56"/>
      <line class="edge" x1="1018" y1="74" x2="1102" y2="70"/>
      <line class="edge" x1="1018" y1="86" x2="1102" y2="84"/>

      <rect x="1150" y="48" width="72" height="32" rx="7" fill="#ffbf72" opacity="0.28">
        <animate attributeName="opacity" values="0.2;0.85;0.2" dur="1.5s" repeatCount="indefinite"/>
      </rect>
      <text class="tiny" x="1172" y="69">ReLU</text>

      <rect x="1272" y="50" width="8" height="30" rx="2" fill="#74e1ff"/>
      <rect x="1284" y="44" width="8" height="36" rx="2" fill="#74e1ff"/>
      <rect x="1296" y="58" width="8" height="22" rx="2" fill="#74e1ff"/>
      <rect x="1308" y="48" width="8" height="32" rx="2" fill="#74e1ff"/>

      <line class="subArrow" x1="1318" y1="68" x2="1336" y2="68"/>
    </g>
  </defs>

  <style><![CDATA[
    svg { font-family: "Segoe UI", Arial, Helvetica, sans-serif; }
    .title { fill: #e8f5ff; font-size: 36px; font-weight: 700; letter-spacing: 0.3px; }
    .subtitle { fill: #96afc7; font-size: 17px; }
    .panel { fill: url(#panelGrad); stroke: #355377; stroke-width: 1.5; }
    .focus { fill: url(#focusGrad); opacity: 0.1; filter: url(#glow); }
    .idx { fill: #76dbff; font-size: 28px; font-weight: 700; }
    .section { fill: #deeeff; font-size: 22px; font-weight: 600; }
    .label { fill: #a8bfd3; font-size: 16px; }
    .tiny { fill: #cbe0f4; font-size: 12.5px; font-weight: 500; }
    .formula { fill: #cadff1; font-size: 19px; font-family: "Times New Roman", serif; }
    .frame { fill: #091326; stroke: #406182; stroke-width: 1.2; }
    .wave { fill: none; stroke: url(#waveGrad); stroke-width: 4; stroke-linecap: round; }
    .waveGlow { fill: none; stroke: #67deff; stroke-width: 11; opacity: 0.2; filter: url(#glow); }
    .flow { fill: none; stroke: url(#arrowGrad); stroke-width: 3; stroke-linecap: round; stroke-dasharray: 12 10; marker-end: url(#arrow); opacity: 0.9; }
    .subArrow { fill: none; stroke: #9be7ff; stroke-width: 1.6; marker-end: url(#arrowS); opacity: 0.8; }
    .dot { fill: #9ae9ff; stroke: #d3f8ff; stroke-width: 0.5; }
    .encOuter { fill: #101e34; stroke: #406287; stroke-width: 1.2; }
    .attn { fill: #13253d; stroke: #527da1; stroke-width: 1.05; }
    .qkv { fill: #1b304c; stroke: #5f8fb4; stroke-width: 0.95; }
    .norm { fill: #172c45; stroke: #5a84aa; stroke-width: 1.05; }
    .ffn { fill: #1a3351; stroke: #5f8fba; stroke-width: 1.05; }
    .attnFlow { fill: none; stroke: #8fe9ff; stroke-width: 1.5; stroke-dasharray: 6 8; opacity: 0.85; }
    .residual { fill: none; stroke: #79e1ff; stroke-width: 2; opacity: 0.45; }
    .edge { stroke: #678fb0; stroke-width: 0.85; opacity: 0.75; }
    .layerTag { fill: #8ec4e7; font-size: 13px; font-weight: 600; text-anchor: end; }
    .stackArrow { fill: none; stroke: #72ddff; stroke-width: 2; stroke-dasharray: 7 8; marker-end: url(#arrowS); opacity: 0.85; }
    .timelineText { fill: #8ea8c1; font-size: 13px; }
  ]]></style>

  <rect x="0" y="0" width="6200" height="1200" fill="url(#bg)"/>
  <rect x="0" y="0" width="6200" height="1200" fill="url(#grid)" opacity="0.32"/>

  <text class="title" x="3100" y="64" text-anchor="middle">Audio Transformer End-to-End Pipeline (Block Diagram)</text>
  <text class="subtitle" x="3100" y="92" text-anchor="middle">Left-to-right data flow for acoustic scene understanding, publication-style animated SVG</text>

  <g id="input">
    <rect class="panel" x="60" y="130" width="760" height="920" rx="26"/>
    <rect class="focus" x="60" y="130" width="760" height="920" rx="26">
      <animate attributeName="opacity" dur="16s" repeatCount="indefinite" keyTimes="0;0.125;0.25;0.375;0.75;0.875;1" values="0.62;0.14;0.08;0.08;0.08;0.08;0.62"/>
    </rect>

    <text class="idx" x="90" y="186">1</text>
    <text class="section" x="136" y="186">Raw Audio Input</text>

    <rect class="frame" x="110" y="280" width="660" height="210" rx="14"/>
    <ellipse cx="440" cy="385" rx="270" ry="58" fill="#4ad7ff" opacity="0.14" filter="url(#glow)">
      <animate attributeName="opacity" dur="16s" repeatCount="indefinite" keyTimes="0;0.125;0.2;1" values="0.12;0.58;0.12;0.12"/>
    </ellipse>

    <g transform="translate(440 385)">
      <g>
        <animateTransform attributeName="transform" type="scale" values="1 1;1 1.08;1 0.94;1 1" dur="2.2s" repeatCount="indefinite"/>
        <path class="waveGlow" d="M-290 0Q-276 -26 -262 0Q-248 24 -234 0Q-220 -30 -206 0Q-192 26 -178 0Q-164 -20 -150 0Q-136 18 -122 0Q-108 -34 -94 0Q-80 28 -66 0Q-52 -20 -38 0Q-24 16 -10 0Q4 -22 18 0Q32 28 46 0Q60 -32 74 0Q88 24 102 0Q116 -18 130 0Q144 32 158 0Q172 -26 186 0Q200 22 214 0Q228 -30 242 0Q256 24 270 0Q284 -18 298 0"/>
        <path class="wave" d="M-290 0Q-276 -26 -262 0Q-248 24 -234 0Q-220 -30 -206 0Q-192 26 -178 0Q-164 -20 -150 0Q-136 18 -122 0Q-108 -34 -94 0Q-80 28 -66 0Q-52 -20 -38 0Q-24 16 -10 0Q4 -22 18 0Q32 28 46 0Q60 -32 74 0Q88 24 102 0Q116 -18 130 0Q144 32 158 0Q172 -26 186 0Q200 22 214 0Q228 -30 242 0Q256 24 270 0Q284 -18 298 0"/>
      </g>
    </g>

    <text class="label" x="100" y="548">1s Raw Waveform (16,000 samples, 16kHz)</text>
  </g>

  <g id="patching">
    <rect class="panel" x="860" y="130" width="760" height="920" rx="26"/>
    <rect class="focus" x="860" y="130" width="760" height="920" rx="26">
      <animate attributeName="opacity" dur="16s" repeatCount="indefinite" keyTimes="0;0.125;0.25;0.375;0.75;0.875;1" values="0.08;0.62;0.14;0.08;0.08;0.08;0.08"/>
    </rect>

    <text class="idx" x="890" y="186">2</text>
    <text class="section" x="936" y="186">Patch Extraction</text>

    <rect class="frame" x="910" y="280" width="660" height="210" rx="14"/>
    <g clip-path="url(#patchClip)">
      <rect x="910" y="280" width="660" height="210" fill="url(#patchPattern)"/>
      <rect x="910" y="280" width="660" height="210" fill="url(#waveGrad)" opacity="0.12"/>
    </g>

    <line x1="910" y1="264" x2="910" y2="498" stroke="#95e9ff" stroke-width="3" stroke-linecap="round" filter="url(#glow)">
      <animate attributeName="x1" dur="16s" repeatCount="indefinite" keyTimes="0;0.125;0.25;1" values="910;910;1570;1570"/>
      <animate attributeName="x2" dur="16s" repeatCount="indefinite" keyTimes="0;0.125;0.25;1" values="910;910;1570;1570"/>
      <animate attributeName="opacity" dur="16s" repeatCount="indefinite" keyTimes="0;0.125;0.25;1" values="0;1;0;0"/>
    </line>

    <text class="label" x="900" y="548">25ms Patch Extraction (40 patches)</text>
    <text class="label" x="900" y="578">Non-overlapping temporal windows</text>
  </g>

  <g id="frontend">
    <rect class="panel" x="1660" y="130" width="760" height="920" rx="26"/>
    <rect class="focus" x="1660" y="130" width="760" height="920" rx="26">
      <animate attributeName="opacity" dur="16s" repeatCount="indefinite" keyTimes="0;0.125;0.25;0.375;0.75;0.875;1" values="0.08;0.08;0.62;0.16;0.08;0.08;0.08"/>
    </rect>

    <text class="idx" x="1690" y="186">3</text>
    <text class="section" x="1736" y="186">Dense Front-End</text>

    <rect class="frame" x="1710" y="250" width="220" height="280" rx="12"/>
    <g>
      <g>
        <animate attributeName="opacity" dur="16s" repeatCount="indefinite" keyTimes="0;0.25;0.32;0.375;1" values="1;1;0;0;1"/>
        <path d="M1730 320C1760 300 1790 350 1820 330C1850 310 1880 360 1910 338" fill="none" stroke="#73ddff" stroke-width="2.3"/>
        <path d="M1730 385C1760 350 1790 420 1820 390C1850 360 1880 420 1910 390" fill="none" stroke="#73ddff" stroke-width="2.3"/>
        <path d="M1730 450C1760 430 1790 470 1820 448C1850 430 1880 468 1910 452" fill="none" stroke="#73ddff" stroke-width="2.3"/>
      </g>
      <g opacity="0">
        <animate attributeName="opacity" dur="16s" repeatCount="indefinite" keyTimes="0;0.25;0.32;0.375;1" values="0;0;1;1;0"/>
        <path d="M1730 332C1760 280 1790 280 1820 332C1850 382 1880 382 1910 332" fill="none" stroke="#b8f4ff" stroke-width="2.4"/>
        <path d="M1730 392C1760 338 1790 450 1820 392C1850 338 1880 450 1910 392" fill="none" stroke="#b8f4ff" stroke-width="2.2"/>
        <path d="M1730 452C1760 426 1790 478 1820 452C1850 426 1880 478 1910 452" fill="none" stroke="#b8f4ff" stroke-width="2.2"/>
      </g>
    </g>

    <rect x="1960" y="250" width="170" height="280" rx="12" fill="#17304e" stroke="#5988ad"/>
    <text class="tiny" x="2020" y="278" text-anchor="middle">Dense Layer</text>
    <text class="tiny" x="2020" y="298" text-anchor="middle">2048</text>

    <rect x="2150" y="250" width="220" height="280" rx="12" fill="#193655" stroke="#5f8fba"/>
    <text class="tiny" x="2260" y="278" text-anchor="middle">Dense Layer</text>
    <text class="tiny" x="2260" y="298" text-anchor="middle">64-D Embedding</text>

    <line class="subArrow" x1="1930" y1="390" x2="1960" y2="390"/>
    <line class="subArrow" x1="2130" y1="390" x2="2150" y2="390"/>

    <circle cx="1938" cy="390" r="4" fill="#b0f3ff" filter="url(#glow)">
      <animate attributeName="cx" dur="16s" repeatCount="indefinite" keyTimes="0;0.25;0.31;0.375;1" values="1938;1938;1960;1960;1938"/>
    </circle>
    <circle cx="2136" cy="390" r="4" fill="#b0f3ff" filter="url(#glow)">
      <animate attributeName="cx" dur="16s" repeatCount="indefinite" keyTimes="0;0.25;0.34;0.375;1" values="2136;2136;2150;2150;2136"/>
    </circle>

    <rect class="frame" x="1710" y="590" width="660" height="100" rx="10"/>
    <rect x="1730" y="622" width="620" height="36" rx="8" fill="url(#embedPattern)" stroke="#4f7b9e"/>
    <rect x="1730" y="622" width="52" height="36" fill="url(#waveGrad)" opacity="0.3">
      <animate attributeName="x" dur="16s" repeatCount="indefinite" keyTimes="0;0.25;0.375;1" values="1730;1730;2298;2298"/>
    </rect>

    <text class="label" x="1698" y="742">Learned Neural Time-Frequency Representation</text>
  </g>

  <g id="positional_encoding">
    <rect class="panel" x="2460" y="130" width="760" height="920" rx="26"/>
    <rect class="focus" x="2460" y="130" width="760" height="920" rx="26">
      <animate attributeName="opacity" dur="16s" repeatCount="indefinite" keyTimes="0;0.125;0.25;0.375;0.75;0.875;1" values="0.08;0.08;0.22;0.58;0.12;0.08;0.08"/>
    </rect>

    <text class="idx" x="2490" y="186">4</text>
    <text class="section" x="2536" y="186">Positional Encoding</text>

    <rect class="frame" x="2510" y="250" width="660" height="370" rx="12"/>

    <rect x="2536" y="520" width="16" height="76" rx="3" fill="#5dd5ff"/>
    <rect x="2560" y="504" width="16" height="92" rx="3" fill="#5dd5ff"/>
    <rect x="2584" y="530" width="16" height="66" rx="3" fill="#5dd5ff"/>
    <rect x="2608" y="492" width="16" height="104" rx="3" fill="#5dd5ff"/>
    <rect x="2632" y="516" width="16" height="80" rx="3" fill="#5dd5ff"/>
    <rect x="2656" y="500" width="16" height="96" rx="3" fill="#5dd5ff"/>
    <rect x="2680" y="524" width="16" height="72" rx="3" fill="#5dd5ff"/>
    <rect x="2704" y="490" width="16" height="106" rx="3" fill="#5dd5ff"/>
    <rect x="2728" y="510" width="16" height="86" rx="3" fill="#5dd5ff"/>
    <rect x="2752" y="498" width="16" height="98" rx="3" fill="#5dd5ff"/>
    <rect x="2776" y="526" width="16" height="70" rx="3" fill="#5dd5ff"/>
    <rect x="2800" y="494" width="16" height="102" rx="3" fill="#5dd5ff"/>
    <rect x="2824" y="514" width="16" height="82" rx="3" fill="#5dd5ff"/>
    <rect x="2848" y="502" width="16" height="94" rx="3" fill="#5dd5ff"/>
    <rect x="2872" y="528" width="16" height="68" rx="3" fill="#5dd5ff"/>
    <rect x="2896" y="492" width="16" height="104" rx="3" fill="#5dd5ff"/>
    <rect x="2920" y="514" width="16" height="82" rx="3" fill="#5dd5ff"/>
    <rect x="2944" y="500" width="16" height="96" rx="3" fill="#5dd5ff"/>
    <rect x="2968" y="522" width="16" height="74" rx="3" fill="#5dd5ff"/>
    <rect x="2992" y="492" width="16" height="104" rx="3" fill="#5dd5ff"/>
    <rect x="3016" y="510" width="16" height="86" rx="3" fill="#5dd5ff"/>
    <rect x="3040" y="496" width="16" height="100" rx="3" fill="#5dd5ff"/>
    <rect x="3064" y="524" width="16" height="72" rx="3" fill="#5dd5ff"/>
    <rect x="3088" y="494" width="16" height="102" rx="3" fill="#5dd5ff"/>

    <g opacity="0">
      <animate attributeName="opacity" dur="16s" repeatCount="indefinite" keyTimes="0;0.25;0.375;1" values="0;0;1;0"/>
      <path d="M2520 516C2580 430 2640 600 2700 516C2760 430 2820 600 2880 516C2940 430 3000 600 3060 516" fill="none" stroke="#bbf5ff" stroke-width="2.2" stroke-dasharray="8 10">
        <animate attributeName="stroke-dashoffset" values="0;-70" dur="1.9s" repeatCount="indefinite"/>
      </path>
      <path d="M2520 558C2580 490 2640 620 2700 558C2760 490 2820 620 2880 558C2940 490 3000 620 3060 558" fill="none" stroke="#9feeff" stroke-width="1.8" stroke-dasharray="8 10">
        <animate attributeName="stroke-dashoffset" values="0;-70" dur="1.6s" repeatCount="indefinite"/>
      </path>
      <path d="M2520 474C2580 430 2640 518 2700 474C2760 430 2820 518 2880 474C2940 430 3000 518 3060 474" fill="none" stroke="#d8fdff" stroke-width="1.7" stroke-dasharray="8 10">
        <animate attributeName="stroke-dashoffset" values="0;-70" dur="2.1s" repeatCount="indefinite"/>
      </path>
    </g>

    <text class="formula" x="2522" y="686">PE(pos, 2i) = sin(pos / 10000<tspan baseline-shift="super" font-size="14">2i/E</tspan>)</text>
    <text class="label" x="2522" y="720">Sinusoidal positional signal merged with patch embeddings</text>
  </g>

  <g id="transformer">
    <rect class="panel" x="3260" y="130" width="1700" height="920" rx="26"/>
    <rect class="focus" x="3260" y="130" width="1700" height="920" rx="26">
      <animate attributeName="opacity" dur="16s" repeatCount="indefinite" keyTimes="0;0.125;0.25;0.375;0.75;0.875;1" values="0.08;0.08;0.1;0.62;0.62;0.14;0.08"/>
    </rect>

    <text class="idx" x="3290" y="186">5</text>
    <text class="section" x="3336" y="186">Transformer Encoder (6 Layers, E=64, 8 Heads)</text>
    <text class="formula" x="3336" y="218">Attention(Q,K,V) = softmax(QK<tspan baseline-shift="super" font-size="14">T</tspan> / sqrt(d<tspan baseline-shift="sub" font-size="14">k</tspan>)) V</text>

    <g transform="translate(3300 240)">
      <use href="#encoderLayer" xlink:href="#encoderLayer"/>
      <text class="layerTag" x="1590" y="22">Layer 1</text>
      <rect x="0" y="0" width="1620" height="120" rx="14" fill="#6de0ff" opacity="0">
        <animate attributeName="opacity" dur="16s" repeatCount="indefinite" keyTimes="0;0.375;0.44;1" values="0;0.24;0;0"/>
      </rect>
    </g>

    <g transform="translate(3300 370)">
      <use href="#encoderLayer" xlink:href="#encoderLayer"/>
      <text class="layerTag" x="1590" y="22">Layer 2</text>
      <rect x="0" y="0" width="1620" height="120" rx="14" fill="#6de0ff" opacity="0">
        <animate attributeName="opacity" dur="16s" repeatCount="indefinite" keyTimes="0;0.44;0.5;1" values="0;0.24;0;0"/>
      </rect>
    </g>

    <g transform="translate(3300 500)">
      <use href="#encoderLayer" xlink:href="#encoderLayer"/>
      <text class="layerTag" x="1590" y="22">Layer 3</text>
      <rect x="0" y="0" width="1620" height="120" rx="14" fill="#6de0ff" opacity="0">
        <animate attributeName="opacity" dur="16s" repeatCount="indefinite" keyTimes="0;0.5;0.56;1" values="0;0.24;0;0"/>
      </rect>
    </g>

    <g transform="translate(3300 630)">
      <use href="#encoderLayer" xlink:href="#encoderLayer"/>
      <text class="layerTag" x="1590" y="22">Layer 4</text>
      <rect x="0" y="0" width="1620" height="120" rx="14" fill="#6de0ff" opacity="0">
        <animate attributeName="opacity" dur="16s" repeatCount="indefinite" keyTimes="0;0.56;0.62;1" values="0;0.24;0;0"/>
      </rect>
    </g>

    <g transform="translate(3300 760)">
      <use href="#encoderLayer" xlink:href="#encoderLayer"/>
      <text class="layerTag" x="1590" y="22">Layer 5</text>
      <rect x="0" y="0" width="1620" height="120" rx="14" fill="#6de0ff" opacity="0">
        <animate attributeName="opacity" dur="16s" repeatCount="indefinite" keyTimes="0;0.62;0.68;1" values="0;0.24;0;0"/>
      </rect>
    </g>

    <g transform="translate(3300 890)">
      <use href="#encoderLayer" xlink:href="#encoderLayer"/>
      <text class="layerTag" x="1590" y="22">Layer 6</text>
      <rect x="0" y="0" width="1620" height="120" rx="14" fill="#6de0ff" opacity="0">
        <animate attributeName="opacity" dur="16s" repeatCount="indefinite" keyTimes="0;0.68;0.75;1" values="0;0.24;0;0"/>
      </rect>
    </g>

    <line class="stackArrow" x1="4120" y1="360" x2="4120" y2="370">
      <animate attributeName="stroke-dashoffset" values="0;-35" dur="1.1s" repeatCount="indefinite"/>
    </line>
    <line class="stackArrow" x1="4120" y1="490" x2="4120" y2="500">
      <animate attributeName="stroke-dashoffset" values="0;-35" dur="1.1s" repeatCount="indefinite"/>
    </line>
    <line class="stackArrow" x1="4120" y1="620" x2="4120" y2="630">
      <animate attributeName="stroke-dashoffset" values="0;-35" dur="1.1s" repeatCount="indefinite"/>
    </line>
    <line class="stackArrow" x1="4120" y1="750" x2="4120" y2="760">
      <animate attributeName="stroke-dashoffset" values="0;-35" dur="1.1s" repeatCount="indefinite"/>
    </line>
    <line class="stackArrow" x1="4120" y1="880" x2="4120" y2="890">
      <animate attributeName="stroke-dashoffset" values="0;-35" dur="1.1s" repeatCount="indefinite"/>
    </line>
  </g>

  <g id="pooling">
    <rect class="panel" x="5000" y="130" width="550" height="920" rx="26"/>
    <rect class="focus" x="5000" y="130" width="550" height="920" rx="26">
      <animate attributeName="opacity" dur="16s" repeatCount="indefinite" keyTimes="0;0.125;0.25;0.375;0.75;0.875;1" values="0.08;0.08;0.08;0.08;0.62;0.18;0.08"/>
    </rect>

    <text class="idx" x="5030" y="186">6</text>
    <text class="section" x="5076" y="186">Average Pooling</text>

    <rect class="frame" x="5040" y="390" width="470" height="200" rx="14"/>
    <rect x="5060" y="470" width="430" height="40" rx="8" fill="#5ed8ff" opacity="0.28"/>

    <rect x="5060" y="470" width="430" height="40" rx="8" fill="url(#waveGrad)" opacity="0.84">
      <animate attributeName="x" dur="16s" repeatCount="indefinite" keyTimes="0;0.75;0.875;1" values="5060;5060;5210;5210"/>
      <animate attributeName="width" dur="16s" repeatCount="indefinite" keyTimes="0;0.75;0.875;1" values="430;430;130;130"/>
    </rect>

    <line class="subArrow" x1="5275" y1="510" x2="5275" y2="536"/>
    <rect x="5238" y="542" width="74" height="22" rx="6" fill="#66ddff" opacity="0.28">
      <animate attributeName="opacity" dur="16s" repeatCount="indefinite" keyTimes="0;0.75;0.875;1" values="0.2;0.2;0.85;0.85"/>
    </rect>

    <text class="label" x="5030" y="640">Average Pooling Across Time</text>
  </g>

  <g id="classifier">
    <rect class="panel" x="5590" y="130" width="550" height="920" rx="26"/>
    <rect class="focus" x="5590" y="130" width="550" height="920" rx="26">
      <animate attributeName="opacity" dur="16s" repeatCount="indefinite" keyTimes="0;0.125;0.25;0.375;0.75;0.875;1" values="0.08;0.08;0.08;0.08;0.1;0.62;0.08"/>
    </rect>

    <text class="idx" x="5620" y="186">7</text>
    <text class="section" x="5666" y="186">Classification Head</text>

    <rect class="frame" x="5630" y="360" width="470" height="320" rx="14"/>
    <rect x="5650" y="380" width="120" height="120" rx="10" fill="#17324f" stroke="#5b8bb0"/>
    <text class="tiny" x="5710" y="430" text-anchor="middle">Dense</text>
    <text class="tiny" x="5710" y="452" text-anchor="middle">200</text>

    <line class="subArrow" x1="5770" y1="440" x2="5790" y2="440"/>

    <rect x="5790" y="380" width="280" height="280" rx="10" fill="#0d182b" stroke="#4f7899"/>

    <g opacity="0.45">
      <animate attributeName="opacity" dur="16s" repeatCount="indefinite" keyTimes="0;0.875;1" values="0.45;1;1"/>

      <g transform="translate(5808 654)"><g><animateTransform attributeName="transform" type="scale" values="1 0.2;1 0.2;1 0.58;1 0.34;1 0.52;1 0.24" keyTimes="0;0.875;0.93;0.965;0.99;1" dur="16s" repeatCount="indefinite"/><rect x="-5" y="-240" width="10" height="240" rx="3" fill="url(#probGrad)"/></g></g>
      <g transform="translate(5822 654)"><g><animateTransform attributeName="transform" type="scale" values="1 0.2;1 0.2;1 0.44;1 0.28;1 0.62;1 0.22" keyTimes="0;0.875;0.93;0.965;0.99;1" dur="16s" repeatCount="indefinite"/><rect x="-5" y="-240" width="10" height="240" rx="3" fill="url(#probGrad)"/></g></g>
      <g transform="translate(5836 654)"><g><animateTransform attributeName="transform" type="scale" values="1 0.2;1 0.2;1 0.72;1 0.38;1 0.55;1 0.24" keyTimes="0;0.875;0.93;0.965;0.99;1" dur="16s" repeatCount="indefinite"/><rect x="-5" y="-240" width="10" height="240" rx="3" fill="url(#probGrad)"/></g></g>
      <g transform="translate(5850 654)"><g><animateTransform attributeName="transform" type="scale" values="1 0.2;1 0.2;1 0.46;1 0.3;1 0.61;1 0.23" keyTimes="0;0.875;0.93;0.965;0.99;1" dur="16s" repeatCount="indefinite"/><rect x="-5" y="-240" width="10" height="240" rx="3" fill="url(#probGrad)"/></g></g>
      <g transform="translate(5864 654)"><g><animateTransform attributeName="transform" type="scale" values="1 0.2;1 0.2;1 0.84;1 0.46;1 0.68;1 0.26" keyTimes="0;0.875;0.93;0.965;0.99;1" dur="16s" repeatCount="indefinite"/><rect x="-5" y="-240" width="10" height="240" rx="3" fill="url(#probGrad)"/></g></g>
      <g transform="translate(5878 654)"><g><animateTransform attributeName="transform" type="scale" values="1 0.2;1 0.2;1 0.5;1 0.32;1 0.56;1 0.21" keyTimes="0;0.875;0.93;0.965;0.99;1" dur="16s" repeatCount="indefinite"/><rect x="-5" y="-240" width="10" height="240" rx="3" fill="url(#probGrad)"/></g></g>
      <g transform="translate(5892 654)"><g><animateTransform attributeName="transform" type="scale" values="1 0.2;1 0.2;1 1.0;1 0.56;1 0.9;1 0.32" keyTimes="0;0.875;0.93;0.965;0.99;1" dur="16s" repeatCount="indefinite"/><rect x="-5" y="-240" width="10" height="240" rx="3" fill="#ffd56f"/></g></g>
      <g transform="translate(5906 654)"><g><animateTransform attributeName="transform" type="scale" values="1 0.2;1 0.2;1 0.54;1 0.31;1 0.64;1 0.23" keyTimes="0;0.875;0.93;0.965;0.99;1" dur="16s" repeatCount="indefinite"/><rect x="-5" y="-240" width="10" height="240" rx="3" fill="url(#probGrad)"/></g></g>
      <g transform="translate(5920 654)"><g><animateTransform attributeName="transform" type="scale" values="1 0.2;1 0.2;1 0.38;1 0.25;1 0.5;1 0.2" keyTimes="0;0.875;0.93;0.965;0.99;1" dur="16s" repeatCount="indefinite"/><rect x="-5" y="-240" width="10" height="240" rx="3" fill="url(#probGrad)"/></g></g>
      <g transform="translate(5934 654)"><g><animateTransform attributeName="transform" type="scale" values="1 0.2;1 0.2;1 0.68;1 0.37;1 0.58;1 0.22" keyTimes="0;0.875;0.93;0.965;0.99;1" dur="16s" repeatCount="indefinite"/><rect x="-5" y="-240" width="10" height="240" rx="3" fill="url(#probGrad)"/></g></g>
      <g transform="translate(5948 654)"><g><animateTransform attributeName="transform" type="scale" values="1 0.2;1 0.2;1 0.56;1 0.31;1 0.6;1 0.23" keyTimes="0;0.875;0.93;0.965;0.99;1" dur="16s" repeatCount="indefinite"/><rect x="-5" y="-240" width="10" height="240" rx="3" fill="url(#probGrad)"/></g></g>
      <g transform="translate(5962 654)"><g><animateTransform attributeName="transform" type="scale" values="1 0.2;1 0.2;1 0.74;1 0.39;1 0.62;1 0.24" keyTimes="0;0.875;0.93;0.965;0.99;1" dur="16s" repeatCount="indefinite"/><rect x="-5" y="-240" width="10" height="240" rx="3" fill="url(#probGrad)"/></g></g>
      <g transform="translate(5976 654)"><g><animateTransform attributeName="transform" type="scale" values="1 0.2;1 0.2;1 0.48;1 0.3;1 0.55;1 0.21" keyTimes="0;0.875;0.93;0.965;0.99;1" dur="16s" repeatCount="indefinite"/><rect x="-5" y="-240" width="10" height="240" rx="3" fill="url(#probGrad)"/></g></g>
      <g transform="translate(5990 654)"><g><animateTransform attributeName="transform" type="scale" values="1 0.2;1 0.2;1 0.62;1 0.35;1 0.57;1 0.22" keyTimes="0;0.875;0.93;0.965;0.99;1" dur="16s" repeatCount="indefinite"/><rect x="-5" y="-240" width="10" height="240" rx="3" fill="url(#probGrad)"/></g></g>
      <g transform="translate(6004 654)"><g><animateTransform attributeName="transform" type="scale" values="1 0.2;1 0.2;1 0.42;1 0.27;1 0.49;1 0.19" keyTimes="0;0.875;0.93;0.965;0.99;1" dur="16s" repeatCount="indefinite"/><rect x="-5" y="-240" width="10" height="240" rx="3" fill="url(#probGrad)"/></g></g>
    </g>

    <circle cx="5892" cy="644" r="5" fill="#ffd56f" opacity="0" filter="url(#glow)">
      <animate attributeName="opacity" dur="16s" repeatCount="indefinite" keyTimes="0;0.875;0.93;1" values="0;0;1;1"/>
      <animate attributeName="cy" dur="16s" repeatCount="indefinite" keyTimes="0;0.875;0.93;0.97;1" values="644;644;430;500;470"/>
    </circle>

    <text class="label" x="5620" y="730">Softmax Output (200 Sound Categories)</text>
  </g>

  <g>
    <path class="flow" d="M820 590H860">
      <animate attributeName="stroke-dashoffset" values="0;-70" dur="1.8s" repeatCount="indefinite"/>
    </path>
    <path class="flow" d="M1620 590H1660">
      <animate attributeName="stroke-dashoffset" values="0;-70" dur="1.8s" repeatCount="indefinite"/>
    </path>
    <path class="flow" d="M2420 590H2460">
      <animate attributeName="stroke-dashoffset" values="0;-70" dur="1.8s" repeatCount="indefinite"/>
    </path>
    <path class="flow" d="M3220 590H3260">
      <animate attributeName="stroke-dashoffset" values="0;-70" dur="1.8s" repeatCount="indefinite"/>
    </path>
    <path class="flow" d="M4960 590H5000">
      <animate attributeName="stroke-dashoffset" values="0;-70" dur="1.8s" repeatCount="indefinite"/>
    </path>
    <path class="flow" d="M5550 590H5590">
      <animate attributeName="stroke-dashoffset" values="0;-70" dur="1.8s" repeatCount="indefinite"/>
    </path>
  </g>

  <g>
    <rect x="120" y="1120" width="5960" height="10" rx="5" fill="#1b2f46"/>
    <rect x="120" y="1120" width="745" height="10" rx="5" fill="#42bee8" opacity="0.45"/>
    <rect x="865" y="1120" width="745" height="10" fill="#42bee8" opacity="0.45"/>
    <rect x="1610" y="1120" width="745" height="10" fill="#42bee8" opacity="0.45"/>
    <rect x="2355" y="1120" width="2235" height="10" fill="#61deff" opacity="0.5"/>
    <rect x="4590" y="1120" width="745" height="10" fill="#42bee8" opacity="0.45"/>
    <rect x="5335" y="1120" width="745" height="10" rx="5" fill="#42bee8" opacity="0.45"/>

    <text class="timelineText" x="120" y="1148">0s</text>
    <text class="timelineText" x="852" y="1148">2s</text>
    <text class="timelineText" x="1598" y="1148">4s</text>
    <text class="timelineText" x="2344" y="1148">6s</text>
    <text class="timelineText" x="4578" y="1148">12s</text>
    <text class="timelineText" x="5324" y="1148">14s</text>
    <text class="timelineText" x="6060" y="1148" text-anchor="end">16s</text>

    <circle cx="120" cy="1125" r="7" fill="#a2edff" filter="url(#glow)">
      <animate attributeName="cx" values="120;6080" dur="16s" repeatCount="indefinite"/>
    </circle>
  </g>
</svg>
